<svg xmlns="http://www.w3.org/2000/svg" enable-background="new 0 0 68 68" viewBox="0 0 68 68" id="Bookmark"><path d="M54.7700195,1H10.7001953C9.222168,1,8.0200195,2.2070313,8.0200195,3.6904297c0,15.5136719,0,45.1479492,0,60.6298828
		C8.0200195,65.7978516,9.222168,67,10.7001953,67h43.2299805c3.3359375,0,6.0498047-2.7138672,6.0498047-6.0498047V6.2099609
		C59.9799805,3.3369141,57.6425781,1,54.7700195,1z M53.9301758,65H10.7001953c-0.375,0-0.6801758-0.3046875-0.6801758-0.6796875
		v-7.4208984h28.8691406v5.4736328c0,0.3466797,0.1791992,0.6679688,0.4741211,0.8505859
		c0.2949219,0.1835938,0.6635742,0.1982422,0.9731445,0.0439453l2.9208984-1.4599609l2.9208984,1.4599609
		c0.3099976,0.1544189,0.6784058,0.1387939,0.9731445-0.0439453c0.2949219-0.1826172,0.4741211-0.5039063,0.4741211-0.8505859
		v-5.4736328h6.3046875c2.2329102,0,4.0498047,1.8173828,4.0498047,4.0507813S56.1630859,65,53.9301758,65z M40.8891602,60.7548828
		v-3.8554688h4.7363281v3.8554688l-1.9208984-0.9599609c-0.2822876-0.140625-0.6123047-0.140625-0.8945313,0L40.8891602,60.7548828z
		 M57.9799805,56.4589844c-1.0640259-0.9614258-2.5391846-1.5595703-4.0498047-1.5595703
		c-0.9400024-0.0002441-42.9696655,0-43.9101563,0V3.6904297C10.0200195,3.3095703,10.3251953,3,10.7001953,3h44.0698242
		c1.7700195,0,3.2099609,1.4404297,3.2099609,3.2099609V56.4589844z" fill="#ababab" class="color000000 svgShape"></path><path d="M47.9990234,14.5927734H20c-1.1030273,0-2,0.8974609-2,2v11.9990234c0,1.1025391,0.8969727,2,2,2h27.9990234
		c1.1025391,0,1.9995117-0.8974609,1.9995117-2V16.5927734C49.9985352,15.4902344,49.1015625,14.5927734,47.9990234,14.5927734z
		 M20,28.5917969V16.5927734h27.9985352l0.0019531,11.9990234H20z" fill="#ababab" class="color000000 svgShape"></path><rect width="13.333" height="2" x="24" y="19.05" fill="#ababab" class="color000000 svgShape"></rect><rect width="13.333" height="2" x="30.666" y="24.135" fill="#ababab" class="color000000 svgShape"></rect></svg>